<?xml version="1.0" encoding="UTF-8"?><svg id="_레이어_2" xmlns="http://www.w3.org/2000/svg" viewBox="0 0 49.12 56.39"><defs><style>.cls-1{fill:#ffd041;}</style></defs><g id="_레이어_1-2"><path class="cls-1" d="M47.14,44.99l-.17-.54-1.4-3.93c-.03-.07-.06-.14-.1-.2L33.03,5.7c-.64-1.88-1.8-3.33-3.44-4.29-3.25-1.93-6.98-1.8-10.1-.05-1.69,.95-2.89,2.4-3.58,4.33L3.58,40.53l-1.59,4.46s-5.94,11.4,2.73,11.4H42.19c1.45,0,2.87-.09,4.27-.28,5.57-1.73,.68-11.12,.68-11.12ZM24.46,20.78l6.62,21.55,.91,2.66h-15.02l7.49-24.21Z"/></g></svg>