<svg width="178" height="42" viewBox="0 0 178 42" fill="none" xmlns="http://www.w3.org/2000/svg">
<path d="M48.7146 39.6634C48.5003 39.6634 48.3288 39.6091 48.1358 39.5548C47.5785 39.3648 47.064 38.8761 46.7854 38.2517C45.9922 36.487 45.9922 36.487 52.5946 23.9983C53.2805 22.7223 54.0308 21.2833 54.7596 19.8987C53.8593 20.6046 52.959 21.3376 52.1444 21.9892C40.7189 31.1657 39.5614 31.8444 38.1466 31.3829C37.5892 31.22 37.0319 30.677 36.7318 30.0526C36.1101 28.668 36.1101 28.668 40.0115 17.0752C40.4831 15.6634 41.0405 14.0345 41.5549 12.5141C37.7822 15.3105 32.4231 19.4372 28.0501 22.8037C9.65789 36.9485 9.50784 36.8942 8.22167 36.4598C7.66433 36.2698 7.14986 35.8082 6.87119 35.1567C5.99231 33.229 5.9923 33.229 14.3739 19.8173C14.8454 18.9485 15.4028 18.0526 15.9601 17.1567C15.4885 17.5367 15.0384 17.8897 14.6097 18.2155C6.42103 24.7042 6.35672 24.7042 5.19917 24.3241C4.64183 24.134 4.12736 23.6725 3.84869 23.0209C3.59145 22.4779 3.59145 22.4779 2.56252 15.2833C2.36959 13.8444 2.11236 12.1883 1.89799 10.7494C1.53358 10.8852 1.1906 10.9123 0.761876 10.7494L1.29778 8.11593L0.397461 5.67249C0.547514 5.56389 0.890493 5.2924 1.21204 5.04806C2.54108 4.01638 3.03411 3.63629 3.95587 3.93493C4.51321 4.12498 5.00624 4.55937 5.28491 5.1838C5.54215 5.75394 5.56358 5.78109 6.78544 14.306C6.9355 15.3919 7.10699 16.5322 7.25704 17.591C8.7147 16.4779 10.644 14.9576 12.3374 13.6272C22.4339 5.61819 22.9483 5.45529 24.1702 5.86253C24.7275 6.05258 25.2634 6.54127 25.5421 7.1657C26.4424 9.12045 26.4424 9.12045 17.675 23.1567C17.2463 23.8625 16.7747 24.6227 16.2817 25.3829C19.2827 23.1024 22.6911 20.496 25.7779 18.1069C44.5989 3.63629 44.7704 3.69059 46.078 4.12498C46.6353 4.31502 47.1498 4.77656 47.4284 5.42815C48.0715 6.83991 48.0715 6.83991 43.9129 19.1929C43.5056 20.3874 43.0555 21.772 42.6053 23.1024C44.899 21.3376 47.6642 19.1114 49.8293 17.3738C59.6685 9.44625 60.1615 9.22905 61.4048 9.63629C61.9622 9.79919 62.4981 10.315 62.7982 10.9395C63.6342 12.7856 63.6342 12.7856 56.1315 26.9847C55.6814 27.8535 55.1883 28.7494 54.7168 29.6453C58.4252 26.849 63.0983 23.2652 67.2355 20.0616C89.2933 3.03901 89.572 3.1476 90.9653 3.58199C91.5227 3.77204 92.0371 4.26073 92.3372 4.88516C93.259 6.92136 93.259 6.92136 82.9268 22.8852C82.1551 24.0797 81.3405 25.3286 80.5474 26.5775C84.1272 23.8625 88.3501 20.6318 92.1229 17.7268C112.316 2.19738 112.53 2.25168 113.838 2.68606C114.395 2.87611 114.91 3.33765 115.188 3.98923C115.938 5.64534 115.938 5.64534 109.636 18.677C108.8 20.3874 107.878 22.315 107 24.134C110.922 21.2019 116.11 17.1838 120.397 13.8716C137.332 0.758463 137.46 0.812761 138.747 1.22C139.304 1.41005 139.818 1.87158 140.097 2.52317C141.019 4.55937 141.019 4.55937 131.244 20.7947C130.429 22.125 129.572 23.5639 128.736 24.9485C131.33 22.9666 134.202 20.7404 136.839 18.7042C156.346 3.63629 156.624 3.71774 157.953 4.15213C158.511 4.34217 159.025 4.83086 159.325 5.45529C160.311 7.60009 160.311 7.60009 149.55 23.4281C149.036 24.1612 148.521 24.9485 147.986 25.7358C151.094 23.3738 154.524 20.7404 157.503 18.4327C174.309 5.50959 174.416 5.53674 175.681 5.94398C176.238 6.13403 176.732 6.59557 177.032 7.24715C177.889 9.1476 177.889 9.1476 169.55 22.668C167.707 25.6544 165.456 29.3195 163.827 32.0345C164.341 33.3105 163.977 34.8852 162.991 35.6182C162.841 35.7268 162.691 35.8082 162.541 35.8625C162.434 35.944 162.326 36.0526 162.219 36.1612C161.276 37.0571 160.461 37.8444 159.347 37.5729C158.747 37.41 158.168 36.8942 157.868 36.2155C156.967 34.2336 156.967 34.2336 166.185 19.3014C166.656 18.6227 167.128 17.8897 167.6 17.1295C165.07 19.0571 162.305 21.1747 159.775 23.1295C140.569 37.9259 140.333 37.8444 139.025 37.41C138.468 37.22 137.953 36.7313 137.675 36.1069C136.732 34.0707 136.732 34.0707 146.335 19.9259C147.278 18.5413 148.307 17.0209 149.336 15.5005C146.035 17.9983 142.305 20.8761 139.111 23.3738C122.498 36.2155 122.369 36.1883 121.083 35.7811C120.526 35.591 120.011 35.1295 119.733 34.4779C118.854 32.5232 118.854 32.5232 127.878 17.5096C128.929 15.7449 130.108 13.7901 131.244 11.8897C128.522 13.953 125.456 16.3422 122.669 18.5141C102.82 33.9078 102.498 33.7992 101.148 33.3648C100.59 33.1748 100.076 32.6861 99.7756 32.0616C99.0039 30.3512 99.0039 30.3512 106.014 15.8535C106.592 14.6589 107.193 13.41 107.793 12.1612C103.934 15.039 98.8539 18.9485 94.3737 22.3965C73.7307 38.2788 73.5163 38.1974 72.1872 37.763C71.6299 37.5729 71.1154 37.0843 70.8368 36.4598C69.9364 34.4779 69.9364 34.4779 79.647 19.4643C80.6545 17.8897 81.7692 16.1793 82.8625 14.496C78.7467 17.591 73.7307 21.4734 69.5077 24.7042C52.5517 37.763 49.9365 39.6634 48.7146 39.6634Z" fill="white" fill-opacity="0.16"/>
<g clip-path="url(#clip0_54_642)">
<path d="M75.3577 30.9637C76.9577 31.9337 78.7577 32.4137 80.7377 32.4137C83.3177 32.4137 85.9177 31.5237 88.5677 29.7237C88.8277 29.5737 89.0077 29.3937 89.0877 29.2137C89.1677 29.0337 89.2177 28.8837 89.2177 28.7537C89.2177 28.5537 89.1177 28.3237 88.9377 28.0137C88.6777 27.7137 88.4977 27.4837 88.3477 27.2737C87.2677 28.1637 86.1877 28.8537 85.0777 29.2837C83.9677 29.7137 82.8577 29.9437 81.7577 29.9437C80.1877 29.9437 78.7477 29.5337 77.4077 28.7237C76.0677 27.9137 75.0077 26.7437 74.2377 25.2737C73.4677 23.8037 73.0477 22.0437 73.0477 20.0137C73.0777 18.0037 73.4377 16.3537 74.1277 15.0337C74.8277 13.7137 75.7277 12.7237 76.8377 12.0637C77.9477 11.4037 79.1777 11.0737 80.4977 11.0737C81.7377 11.0737 82.7177 11.2737 83.4377 11.7137C84.1577 12.1237 84.6977 12.5737 85.0577 13.0837C85.4177 13.5937 85.6477 13.9737 85.7577 14.2737C86.3477 14.0237 86.8877 13.6637 87.4277 13.2337C87.9477 12.8037 88.1977 12.3937 88.1977 12.0437C88.1977 11.7637 87.9877 11.3337 87.5777 10.8237C87.1677 10.2937 86.4977 9.80367 85.5977 9.40367C84.6977 8.97367 83.4377 8.76367 81.8377 8.76367C79.7977 8.76367 77.8977 9.27367 76.1177 10.2837C74.3177 11.3037 72.8677 12.7437 71.7877 14.6037C70.7077 16.4537 70.1377 18.6637 70.1377 21.2037C70.1677 23.3637 70.6577 25.2937 71.5777 26.9737C72.4977 28.6837 73.7577 30.0037 75.3577 30.9637Z" fill="white"/>
<path d="M129.718 31.7537C131.158 31.7837 132.348 31.8037 133.218 31.8037C133.628 31.8037 133.918 31.6037 134.048 31.2237C134.258 30.6137 134.438 29.7537 134.618 28.6337C134.798 27.5137 134.928 26.3737 134.978 25.1837C134.848 25.0537 134.638 24.9537 134.358 24.9037C134.048 24.8237 133.818 24.7737 133.638 24.7737C133.378 24.7737 133.228 24.8737 133.148 25.1037L132.268 27.7937C131.908 28.8837 131.108 29.4437 129.868 29.4937L119.868 29.5937L133.908 10.9737V9.47373H123.238C122.418 9.47373 121.568 9.44373 120.688 9.42373C119.808 9.39373 119.018 9.34373 118.288 9.32373C118.138 9.32373 117.958 9.35373 117.768 9.37373C117.588 9.40373 117.458 9.50373 117.408 9.65373C117.198 10.0137 116.998 10.6937 116.788 11.7337C116.578 12.7737 116.428 13.8937 116.378 15.1137C116.768 15.2637 117.178 15.3437 117.618 15.3437C117.978 15.3437 118.208 15.1937 118.318 14.8637L118.858 13.1337C119.008 12.6037 119.248 12.1637 119.578 11.9137C119.888 11.6337 120.348 11.5037 120.968 11.5037L130.058 11.4037C127.898 14.5537 125.628 17.6737 123.208 20.8037C120.788 23.9037 118.338 27.0037 115.868 30.0537V31.7037H125.758C126.958 31.7037 128.268 31.7337 129.718 31.7537Z" fill="white"/>
<path d="M102.067 30.7937C108.147 30.7937 113.097 25.9137 113.097 19.9237C113.097 13.9337 108.147 9.05371 102.067 9.05371C95.9871 9.05371 91.0371 13.9337 91.0371 19.9237C91.0471 25.9137 95.9871 30.7937 102.067 30.7937ZM97.2771 19.8937C97.2771 17.2737 99.5807 15.6314 102.231 15.6314C104.881 15.6314 106.857 17.2837 106.857 19.8937V19.9037V19.9137C104.68 23.4167 103.346 23.4409 102.067 24.6337C100.824 23.0037 97.7924 22.4937 97.7924 19.8837L97.2771 19.9037V19.8937Z" fill="white"/>
<path d="M102.067 24.6137C104.717 24.6137 106.847 22.5137 106.857 19.9037C108.779 14.0064 104.717 15.1937 102.067 15.1937C99.4171 15.1937 97.2871 17.2937 97.2771 19.9037C97.2871 22.5137 99.4171 24.6137 102.067 24.6137ZM102.067 16.7637C103.817 16.7637 105.237 18.1637 105.237 19.8837C105.237 21.6137 103.817 23.0037 102.067 23.0037C100.317 23.0037 98.8971 21.6037 98.8971 19.8837C98.8971 18.1637 100.317 16.7637 102.067 16.7637Z" fill="white"/>
<path d="M102.067 24.6438C104.717 24.6438 106.857 22.5338 106.857 19.9238V19.9138C106.847 22.5238 104.717 24.6238 102.067 24.6238C99.4173 24.6238 97.2873 22.5238 97.2773 19.9138V19.9238C97.2773 22.5338 99.4173 24.6438 102.067 24.6438Z" fill="white"/>
<path d="M65.9275 30.1038C66.0275 30.0538 66.1375 29.9538 66.2575 29.8238C66.3875 29.6938 66.4675 29.5238 66.4675 29.2938C66.4675 29.0438 66.3675 28.7338 66.2075 28.3838C65.9775 28.0038 65.8475 27.8038 65.7675 27.7238C63.5775 29.1938 61.3375 29.9338 59.0175 29.9338C56.5975 29.9338 54.5875 29.1438 52.9375 27.5438C51.2875 25.9438 50.4175 23.5538 50.2575 20.3838L64.4575 19.8038C65.2075 19.7538 65.7175 19.5238 66.0275 19.1638C66.3075 18.8038 66.4375 18.1938 66.4175 17.3338C66.3875 15.8638 66.0875 14.4638 65.5375 13.1938C64.9675 11.8938 64.0975 10.8538 62.8875 10.0138C61.6775 9.17376 60.0775 8.77376 58.0975 8.77376C56.0575 8.74376 54.2575 9.23376 52.6075 10.2238C50.9575 11.2138 49.6675 12.6638 48.7175 14.5138C47.7675 16.3938 47.2975 18.6338 47.3275 21.2238C47.3775 23.4638 47.8475 25.3938 48.6675 27.0138C48.6675 27.0638 48.6675 27.1138 48.6675 27.1638C48.0275 28.9638 46.3975 29.5238 45.5475 29.7338C45.1875 29.7838 44.8275 29.7838 44.6675 29.7638C44.3075 29.6838 43.9675 29.6138 43.6675 29.4838C42.9675 29.2038 42.2275 28.6438 41.4275 27.8038C40.6275 26.9638 39.6475 25.6938 38.5375 24.0238C37.4075 22.3438 35.9575 20.1138 34.2375 17.3138C36.5275 16.5538 38.3075 15.3538 39.5975 13.7338C40.8875 12.1038 41.5275 10.1738 41.5275 7.91376C41.5275 5.98376 41.0075 4.46376 40.0075 3.31376C38.9775 2.19376 37.6375 1.38376 35.9875 0.87376C34.3675 0.35376 32.5875 0.10376 30.7075 0.10376H20.3775C20.0675 0.10376 19.8575 0.30376 19.7875 0.74376C19.7375 0.89376 19.7075 1.10376 19.6875 1.35376C19.6575 1.57376 19.6275 1.78376 19.6275 1.93376C20.5775 1.93376 21.2775 1.98376 21.6875 2.08376C22.0975 2.18376 22.3575 2.44376 22.4875 2.79376C22.5875 3.15376 22.6375 3.73376 22.6375 4.52376V27.0338C22.6375 28.2038 22.4075 28.9938 21.9175 29.4238C21.4275 29.8538 20.6775 30.1638 19.6775 30.2638C19.5475 30.4438 19.4675 30.6438 19.4475 30.8738C19.4275 31.1238 19.3975 31.2938 19.3975 31.4238C19.3975 31.7238 19.5475 31.8838 19.8575 31.8838H27.9175C27.9675 31.8838 28.0675 31.8538 28.1975 31.7838C28.3275 31.7338 28.4275 31.5338 28.5275 31.2238C28.5775 31.0738 28.6275 30.8638 28.6575 30.6438C28.6975 30.3838 28.6975 30.2038 28.6975 30.0538C28.3875 30.0538 28.0575 30.0538 27.6675 30.0538C27.2775 30.0538 26.9675 30.0238 26.7675 30.0038C26.1775 29.9538 25.8175 29.7238 25.6875 29.3438C25.5575 28.9638 25.4775 28.2038 25.4775 27.0838V18.1138C25.7875 18.1438 26.1775 18.1938 26.5575 18.2138C26.9475 18.2438 27.3275 18.2638 27.6875 18.2638C29.0775 18.2638 30.3675 18.1638 31.5775 17.9338L38.1975 28.3538C39.1475 29.8238 39.9975 30.8138 40.7775 31.3238C41.5475 31.8338 42.3275 32.1138 43.0975 32.1138C43.5875 32.1138 44.0775 32.0638 44.5175 32.0138C44.9575 31.9338 45.3675 31.7838 45.7575 31.5838C48.8275 29.7338 49.4375 28.4038 49.4675 28.3038C49.7275 28.6838 49.9875 29.0638 50.3175 29.3938C52.2275 31.4038 54.8275 32.4138 58.1275 32.4138C59.5175 32.4138 60.9075 32.2138 62.2775 31.8338C63.6275 31.4538 64.8475 30.8638 65.9275 30.1038ZM52.5775 12.9038C53.8675 11.5538 55.5175 10.8738 57.4975 10.8738C59.5375 10.8738 61.0575 11.4338 62.1075 12.5738C63.1675 13.7138 63.5975 15.3438 63.4175 17.4738L50.3075 18.2138C50.5475 16.0338 51.2875 14.2538 52.5775 12.9038ZM29.0375 16.1538C27.8475 16.1538 26.6675 16.0538 25.4275 15.8238V3.43376C25.4275 2.62376 25.8875 2.16376 26.8175 2.06376C27.6375 1.98376 28.4675 1.93376 29.2675 1.93376C31.9475 1.93376 34.1875 2.46376 35.9175 3.53376C37.6475 4.60376 38.5475 6.30376 38.5475 8.61376C38.5475 10.3438 38.1375 11.7938 37.2875 12.8838C36.4675 14.0038 35.3575 14.8138 33.9175 15.3438C32.4875 15.8838 30.8575 16.1538 29.0375 16.1538Z" fill="white"/>
<path d="M143.417 37.0637C143.437 37.0437 143.467 37.0137 143.487 36.9937C143.437 37.0437 143.377 37.0837 143.317 37.1237C143.337 37.1137 143.367 37.1037 143.387 37.0937C143.407 37.0837 143.407 37.0737 143.417 37.0637Z" fill="white"/>
<path d="M143.497 36.9836C143.497 36.9936 143.497 36.9936 143.497 36.9836C143.467 37.0136 143.447 37.0336 143.417 37.0636C143.447 37.0436 143.467 37.0236 143.497 36.9836Z" fill="white"/>
<path d="M143.367 37.1137C143.377 37.1037 143.387 37.0937 143.397 37.0837C143.377 37.0937 143.347 37.1037 143.327 37.1137C143.297 37.1337 143.267 37.1637 143.237 37.1837C143.267 37.1637 143.317 37.1437 143.367 37.1137Z" fill="white"/>
<path d="M160.347 9.68364C160.327 9.55364 160.167 9.48364 159.907 9.48364H156.227C154.837 9.48364 154.297 12.6336 154.297 12.6336C154.247 12.9136 154.197 13.1936 154.067 13.5736L148.687 27.9036L142.527 13.1436C142.427 12.9636 142.397 12.9636 142.367 12.8136L142.317 12.6836C142.317 12.6836 141.697 9.89364 140.747 9.48364H136.517C136.157 9.48364 135.927 9.63364 135.817 9.96364C135.787 10.1136 135.737 10.3236 135.717 10.5736C135.687 10.8036 135.667 11.0036 135.667 11.1836C136.617 11.2136 137.367 11.3636 137.907 11.6436C138.447 11.9236 138.967 12.6136 139.507 13.6736L147.337 31.3836C146.387 33.6436 145.307 35.3436 144.087 36.5136C143.907 36.6936 143.697 36.8136 143.517 36.9736C143.507 36.9836 143.497 36.9936 143.487 37.0036C143.457 37.0336 143.437 37.0536 143.407 37.0836C143.397 37.0936 143.387 37.1036 143.377 37.1136C143.367 37.1236 143.357 37.1336 143.347 37.1436C143.297 37.1736 143.247 37.1936 143.217 37.2236C143.247 37.2036 143.277 37.1736 143.307 37.1536C143.277 37.1636 143.247 37.1836 143.217 37.1936C143.117 37.2736 142.987 37.3436 142.857 37.4236C142.647 37.5536 142.447 37.6536 142.237 37.7536C142.107 37.8036 141.957 37.8536 141.827 37.9036C139.787 38.6436 137.397 38.5436 137.397 38.5436H109.827C107.357 37.6336 94.2872 31.5136 95.3372 39.8136C95.3372 40.4736 107.457 41.0036 109.827 41.0736V41.0836H141.637C141.767 41.0836 141.897 41.0536 142.027 41.0036C143.037 40.8536 143.957 40.4436 144.787 39.7636C145.847 38.8736 146.767 37.6536 147.567 36.1336C148.397 34.5836 149.117 32.8336 149.727 30.8736L156.197 14.2636C156.657 13.1436 157.177 12.3536 157.737 11.9036C158.307 11.4436 159.127 11.2136 160.157 11.1636C160.257 11.0136 160.317 10.8336 160.367 10.6336C160.417 10.4336 160.417 10.2736 160.417 10.1536C160.417 10.1236 160.417 10.0736 160.417 10.0536C160.397 9.93364 160.367 9.80364 160.347 9.68364Z" fill="white"/>
</g>
<defs>
<clipPath id="clip0_54_642">
<rect width="141.03" height="41" fill="white" transform="translate(19.3975 0.10376)"/>
</clipPath>
</defs>
</svg>
