<svg xmlns="http://www.w3.org/2000/svg" viewBox="0 0 169.28 41"><defs><style>.cls-1{fill:#faf6ed;}.cls-2{fill:none;}.cls-3{fill:#201f1b;}.cls-4{fill:#f1605f;}</style></defs><g id="Layer_2" data-name="Layer 2"><g id="Layer_1-2" data-name="Layer 1"><path class="cls-1" d="M.85,12.91,0,11.06c.15-.08.47-.28.79-.48,1.26-.77,1.73-1.06,2.61-.84a2,2,0,0,1,1.28,1c.25.44.26.45,1.43,6.86.14.81.31,1.7.45,2.5,1.4-.84,3.25-2,4.87-3,9.66-6,10.12-6.16,11.3-5.86a2.16,2.16,0,0,1,1.32,1c.86,1.49.86,1.49-7.53,12.09-.42.53-.87,1.09-1.32,1.67,2.86-1.71,6.12-3.69,9.07-5.48C42.26,9.53,42.45,9.56,43.7,9.89a2.14,2.14,0,0,1,1.29,1c.61,1.07.61,1.07-3.36,10.39-.4.92-.84,2-1.27,3,2.2-1.33,4.84-3,6.91-4.32,9.42-6,9.87-6.15,11.07-5.85a2.22,2.22,0,0,1,1.33,1c.8,1.4.8,1.4-6.36,12.11l-1.36,2c3.54-2.1,8-4.83,12-7.24C85,9.08,85.28,9.17,86.6,9.5a2.13,2.13,0,0,1,1.31,1c.88,1.53.88,1.53-9,13.6l-2.28,2.78c3.43-2,7.47-4.49,11.09-6.69C107,8.45,107.23,8.51,108.48,8.82a2.12,2.12,0,0,1,1.29,1c.72,1.24.72,1.24-5.3,11.07-.79,1.29-1.69,2.75-2.53,4.14,3.75-2.21,8.71-5.24,12.8-7.74,16.19-9.9,16.32-9.86,17.56-9.55a2.14,2.14,0,0,1,1.3,1c.88,1.52.88,1.52-8.48,13.8l-2.39,3.14c2.48-1.49,5.24-3.18,7.75-4.72,18.63-11.37,18.9-11.31,20.19-11a2.21,2.21,0,0,1,1.31,1c.93,1.63.93,1.63-9.35,13.58l-1.49,1.73c3-1.78,6.28-3.79,9.14-5.53,16-9.74,16.13-9.72,17.36-9.41a2.1,2.1,0,0,1,1.28,1c.83,1.43.83,1.43-7.14,11.64-1.77,2.26-3.92,5-5.48,7.08a2,2,0,0,1-.81,2.7,1.72,1.72,0,0,1-.42.18l-.3.23c-.9.69-1.67,1.27-2.75,1.06a2.21,2.21,0,0,1-1.42-1c-.86-1.48-.86-1.48,8-12.75l1.32-1.7c-2.4,1.44-5,3.05-7.46,4.52C134,35.39,133.79,35.34,132.54,35a2.14,2.14,0,0,1-1.3-1c-.89-1.54-.89-1.54,8.28-12.19l2.87-3.35c-3.15,1.89-6.71,4.06-9.77,5.93-15.91,9.72-16,9.69-17.25,9.37a2.1,2.1,0,0,1-1.29-1c-.85-1.47-.85-1.47,7.78-12.79l3.23-4.25c-2.6,1.57-5.55,3.37-8.22,5C97.9,32.37,97.6,32.29,96.32,32A2.15,2.15,0,0,1,95,31c-.75-1.29-.75-1.29,6-12.25L102.67,16c-3.7,2.18-8.55,5.13-12.81,7.72-19.76,12-20,11.92-21.24,11.61a2.12,2.12,0,0,1-1.29-1c-.86-1.49-.86-1.49,8.42-12.83l3.07-3.76c-3.94,2.34-8.73,5.25-12.76,7.71C49.87,35.29,47.37,36.71,46.19,36.71a2,2,0,0,1-.55-.09,2.12,2.12,0,0,1-1.3-1c-.77-1.32-.77-1.32,5.56-10.78L52,21.77l-2.49,1.58c-10.93,6.93-12,7.43-13.4,7.1a2.29,2.29,0,0,1-1.35-1c-.61-1-.61-1,3.14-9.8l1.46-3.45c-3.6,2.11-8.75,5.23-12.93,7.77C8.83,34.63,8.67,34.58,7.44,34.27a2.1,2.1,0,0,1-1.29-1c-.84-1.46-.84-1.46,7.15-11.56l1.58-2-1.28.8c-7.84,4.9-7.91,4.89-9,4.61a2.14,2.14,0,0,1-1.3-1c-.23-.41-.23-.41-1.23-5.86-.19-1.07-.42-2.33-.62-3.42a4.2,4.2,0,0,1-.36-1.09l-.23-.88"/><rect class="cls-2" x="14.13" width="141" height="41"/><path class="cls-2" d="M56.84,12.47a6,6,0,0,0-4.61-1.7,6.57,6.57,0,0,0-4.92,2A8.77,8.77,0,0,0,45,18.11l13.11-.73A6.15,6.15,0,0,0,56.84,12.47Z"/><path class="cls-2" d="M32,12.78a6.79,6.79,0,0,0,1.26-4.27,5.57,5.57,0,0,0-2.63-5.08A12.52,12.52,0,0,0,24,1.83c-.8,0-1.62,0-2.44.13s-1.4.55-1.4,1.37V15.72a19.63,19.63,0,0,0,3.61.33,13.62,13.62,0,0,0,4.87-.81A7.12,7.12,0,0,0,32,12.78Z"/><path class="cls-2" d="M96.8,15.09a4.75,4.75,0,0,1,4.79,4.71h0a4.79,4.79,0,0,0-9.58,0h0A4.75,4.75,0,0,1,96.8,15.09Z"/><path class="cls-2" d="M96.8,22.91a3.13,3.13,0,1,0-3.17-3.12A3.14,3.14,0,0,0,96.8,22.91Z"/><path class="cls-2" d="M138.12,37l0,0,0,0Z"/><path class="cls-3" d="M70.08,30.86a10.2,10.2,0,0,0,5.39,1.45,13.9,13.9,0,0,0,7.83-2.69,1.13,1.13,0,0,0,.51-.51,1.2,1.2,0,0,0,.13-.46,1.53,1.53,0,0,0-.28-.73c-.26-.31-.44-.54-.59-.74a12.42,12.42,0,0,1-3.27,2,9.18,9.18,0,0,1-3.33.66,8.24,8.24,0,0,1-4.35-1.22A8.57,8.57,0,0,1,69,25.17a11.18,11.18,0,0,1-1.19-5.25,10.89,10.89,0,0,1,1.09-5,7.34,7.34,0,0,1,2.7-3,7.08,7.08,0,0,1,3.66-1,5.75,5.75,0,0,1,2.94.64A4.89,4.89,0,0,1,79.77,13a5.15,5.15,0,0,1,.69,1.19,6.77,6.77,0,0,0,1.68-1,1.76,1.76,0,0,0,.77-1.19,2.26,2.26,0,0,0-.62-1.22,5.08,5.08,0,0,0-2-1.42,8.93,8.93,0,0,0-3.76-.64,11.3,11.3,0,0,0-5.72,1.53,11.44,11.44,0,0,0-4.33,4.32,12.9,12.9,0,0,0-1.65,6.6,12.09,12.09,0,0,0,1.45,5.77A10.27,10.27,0,0,0,70.08,30.86Z"/><path class="cls-3" d="M124.44,31.65c1.44,0,2.63.05,3.51.05a.8.8,0,0,0,.82-.58,16.58,16.58,0,0,0,.57-2.59,29.34,29.34,0,0,0,.36-3.46,1.24,1.24,0,0,0-.62-.28,3.66,3.66,0,0,0-.72-.12.45.45,0,0,0-.49.33L127,27.69a2.37,2.37,0,0,1-2.39,1.7l-10,.1,14-18.62V9.37H118c-.83,0-1.68,0-2.56,0s-1.67-.07-2.39-.1a5.05,5.05,0,0,0-.52,0,.43.43,0,0,0-.36.28,8.11,8.11,0,0,0-.62,2.08,22.82,22.82,0,0,0-.41,3.38,3.22,3.22,0,0,0,1.24.23.66.66,0,0,0,.7-.48L113.6,13a2.27,2.27,0,0,1,.72-1.22,2,2,0,0,1,1.39-.4l9.09-.11c-2.16,3.15-4.43,6.28-6.85,9.4s-4.87,6.2-7.34,9.25V31.6h9.89C121.69,31.6,123,31.63,124.44,31.65Z"/><path class="cls-3" d="M96.8,30.69a10.88,10.88,0,1,0-11-10.88A11,11,0,0,0,96.8,30.69ZM92,19.79a4.79,4.79,0,0,1,9.58,0h0a4.79,4.79,0,0,1-9.58,0h0Z"/><path class="cls-4" d="M96.8,24.51A4.71,4.71,0,1,0,92,19.8,4.75,4.75,0,0,0,96.8,24.51Zm0-7.85a3.13,3.13,0,1,1-3.17,3.13A3.15,3.15,0,0,1,96.8,16.66Z"/><path class="cls-4" d="M96.8,24.54a4.75,4.75,0,0,0,4.79-4.73h0a4.79,4.79,0,0,1-9.58,0h0A4.75,4.75,0,0,0,96.8,24.54Z"/><path class="cls-3" d="M60.65,30a1.31,1.31,0,0,0,.34-.28.71.71,0,0,0,.2-.53,2.55,2.55,0,0,0-.25-.92,5.66,5.66,0,0,0-.44-.66,11.88,11.88,0,0,1-6.75,2.21,8.32,8.32,0,0,1-6.08-2.39c-1.65-1.6-2.53-4-2.68-7.16l14.19-.58a2.19,2.19,0,0,0,1.58-.64,2.84,2.84,0,0,0,.38-1.83,11,11,0,0,0-.87-4.14,7.47,7.47,0,0,0-2.66-3.17,8.23,8.23,0,0,0-4.79-1.25,10.21,10.21,0,0,0-5.49,1.45,10.53,10.53,0,0,0-3.89,4.29,14.47,14.47,0,0,0-1.39,6.71,13.36,13.36,0,0,0,1.34,5.79v.15a4.11,4.11,0,0,1-3.12,2.57,3.91,3.91,0,0,1-.87,0,7.06,7.06,0,0,1-1-.28,6.83,6.83,0,0,1-2.24-1.68,28.42,28.42,0,0,1-2.88-3.79C32.13,22.23,30.69,20,29,17.2a11,11,0,0,0,5.35-3.58A9.08,9.08,0,0,0,36.26,7.8a6.73,6.73,0,0,0-1.52-4.6,8.89,8.89,0,0,0-4-2.44A17.64,17.64,0,0,0,25.44,0H15.1c-.3,0-.51.2-.59.64a2.65,2.65,0,0,0-.1.6,5,5,0,0,0-.05.59A9.88,9.88,0,0,1,16.42,2a1.09,1.09,0,0,1,.8.71,7.13,7.13,0,0,1,.15,1.73V26.93a3.06,3.06,0,0,1-.72,2.38,3.88,3.88,0,0,1-2.24.84,1.2,1.2,0,0,0-.23.61,5.58,5.58,0,0,0,0,.56.4.4,0,0,0,.46.46h8.06a.75.75,0,0,0,.29-.1c.13-.05.23-.26.33-.56a3.29,3.29,0,0,0,.13-.59,4.46,4.46,0,0,0,0-.58h-1a9.08,9.08,0,0,1-.91-.05c-.59,0-.95-.28-1.08-.66a8.35,8.35,0,0,1-.2-2.26V18c.3,0,.69.08,1.08.1s.77.05,1.13.05a20.81,20.81,0,0,0,3.89-.33l6.62,10.42a10.43,10.43,0,0,0,2.58,3,4.2,4.2,0,0,0,2.32.79,12.31,12.31,0,0,0,1.41-.1,4.17,4.17,0,0,0,1.24-.44c3.07-1.85,3.69-3.17,3.71-3.27A7.43,7.43,0,0,0,45,29.29a10.26,10.26,0,0,0,7.81,3A15.51,15.51,0,0,0,57,31.73,11.82,11.82,0,0,0,60.65,30ZM47.31,12.8a6.57,6.57,0,0,1,4.92-2,6,6,0,0,1,4.61,1.7,6.15,6.15,0,0,1,1.31,4.91L45,18.11A8.77,8.77,0,0,1,47.31,12.8ZM23.76,16.05a19.63,19.63,0,0,1-3.61-.33V3.33c0-.82.47-1.27,1.4-1.37s1.64-.13,2.44-.13a12.52,12.52,0,0,1,6.65,1.6,5.57,5.57,0,0,1,2.63,5.08A6.79,6.79,0,0,1,32,12.78a7.12,7.12,0,0,1-3.38,2.46A13.62,13.62,0,0,1,23.76,16.05Z"/><path class="cls-3" d="M90.07,39.68c0,.66,12.12,1.19,14.49,1.26V38.41C102.09,37.5,89,31.38,90.07,39.68Z"/><path class="cls-3" d="M138.15,37l.07-.07a1.09,1.09,0,0,1-.17.13l.07,0Z"/><path class="cls-3" d="M138.23,36.88h0l-.07.07Z"/><path class="cls-3" d="M138.1,37l0,0-.07,0-.08.07A.36.36,0,0,1,138.1,37Z"/><path class="cls-3" d="M155.07,9.58c0-.13-.18-.21-.43-.21H151c-1.39,0-1.93,3.15-1.93,3.15a5.75,5.75,0,0,1-.23.94L143.4,27.79,137.25,13c-.11-.18-.13-.18-.16-.33l-.05-.13s-.62-2.79-1.57-3.2h-4.23a.65.65,0,0,0-.69.49c0,.15-.08.35-.11.61s-.05.43-.05.61a5.15,5.15,0,0,1,2.24.45,4.48,4.48,0,0,1,1.6,2l7.83,17.7a15.31,15.31,0,0,1-3.24,5.13c-.18.18-.39.31-.57.46l0,0h0l-.08.08,0,0h0l0,0a.36.36,0,0,0-.13.08l.08-.07-.08,0a3.17,3.17,0,0,1-.36.23c-.21.13-.42.23-.62.33l-.41.15a13.34,13.34,0,0,1-4.43.64H104.56V41h31.81a1.09,1.09,0,0,0,.39-.08,5.55,5.55,0,0,0,2.75-1.24A11.92,11.92,0,0,0,142.3,36a32,32,0,0,0,2.16-5.26l6.47-16.62a6,6,0,0,1,1.54-2.36,4.19,4.19,0,0,1,2.42-.74,1.47,1.47,0,0,0,.21-.53,1.81,1.81,0,0,0,.05-.48v-.1Z"/></g></g></svg>