<svg xmlns="http://www.w3.org/2000/svg" viewBox="0 0 24.96 31.56"><defs><style>.cls-1{fill:#fff;}.cls-2{fill:#d0e4f5;}</style></defs><g id="Layer_2" data-name="Layer 2"><g id="Layer_1-2" data-name="Layer 1"><path class="cls-1" d="M20.88.85,18.79,0l-2.3,5.67L8,5.08l-1.25,5,2.06.51.82-3.27,6,.42a68.71,68.71,0,0,1-3.9,7.79h0l1.58,1.7,3.25,5a.36.36,0,0,1,0,.32L14.53,30l2.16,1.55,1.24-1.72L17,29.15l1.69-6h0a2.53,2.53,0,0,0-.31-2l-3.83-5.93h0c1-1.77,1.89-3.66,2.77-5.62L18.38,7Z"/><path class="cls-2" d="M11.73,15.53c-.48.82-1,1.59-1.45,2.3-3,4.31-5.92,6.39-8.72,6.09l-.25,0-.53,1.3L0,26.87l1.92.89L2.74,26c3.41-.34,6.76-3,10-7.81.22-.32.43-.65.64-1l-1.58-1.7Z"/><polygon class="cls-2" points="24.21 10.23 20.71 11.56 18.9 8.03 18.38 7.01 17.3 9.55 17.55 10.06 19.68 14.21 24.96 12.22 24.21 10.23"/></g></g></svg>